<svg width="25" height="35" viewBox="0 0 25 35" fill="none" xmlns="http://www.w3.org/2000/svg">
<mask id="mask0_421_1391" style="mask-type:luminance" maskUnits="userSpaceOnUse" x="2" y="6" width="21" height="17">
<path fill-rule="evenodd" clip-rule="evenodd" d="M2.5 6.5401H22.0859V22.7217H2.5V6.5401Z" fill="white"/>
</mask>
<g mask="url(#mask0_421_1391)">
<path fill-rule="evenodd" clip-rule="evenodd" d="M16.4605 22.7221H8.1125C5.9695 22.7221 4.4765 22.1971 3.5475 21.1181C2.6145 20.0361 2.3025 18.4131 2.6205 16.2951L3.3965 10.2691C3.9065 7.5061 5.7715 6.5401 7.2155 6.5401H17.3945C18.8445 6.5401 20.6075 7.5031 21.2025 10.2041L21.9915 16.3111C22.2745 18.2821 21.9205 19.8631 20.9375 20.9971C19.9595 22.1251 18.4115 22.7221 16.4605 22.7221V22.7221Z" fill="#C67C4E"/>
</g>
<path fill-rule="evenodd" clip-rule="evenodd" d="M16.5978 7.82031C16.1838 7.82031 15.8478 7.48431 15.8478 7.07031C15.8478 5.10131 14.2458 3.50031 12.2778 3.50031H12.2628C11.3218 3.50031 10.4048 3.87931 9.73981 4.54031C9.07181 5.20531 8.68881 6.12831 8.68881 7.07031C8.68881 7.48431 8.35281 7.82031 7.93881 7.82031C7.52481 7.82031 7.18881 7.48431 7.18881 7.07031C7.18881 5.73131 7.73281 4.42231 8.68081 3.47731C9.62581 2.53831 10.9288 2.00031 12.2598 2.00031H12.2808C15.0738 2.00031 17.3478 4.27431 17.3478 7.07031C17.3478 7.48431 17.0118 7.82031 16.5978 7.82031" fill="#C67C4E"/>
<path fill-rule="evenodd" clip-rule="evenodd" d="M15.2433 12.3242H15.1973C14.7833 12.3242 14.4473 11.9882 14.4473 11.5742C14.4473 11.1602 14.7833 10.8242 15.1973 10.8242C15.6113 10.8242 15.9703 11.1602 15.9703 11.5742C15.9703 11.9882 15.6573 12.3242 15.2433 12.3242" fill="white"/>
<path fill-rule="evenodd" clip-rule="evenodd" d="M9.41219 12.3242H9.36719C8.95319 12.3242 8.61719 11.9882 8.61719 11.5742C8.61719 11.1602 8.95319 10.8242 9.36719 10.8242C9.78119 10.8242 10.1402 11.1602 10.1402 11.5742C10.1402 11.9882 9.82619 12.3242 9.41219 12.3242" fill="white"/>
<rect x="7.5" y="30" width="10" height="5" rx="2.5" fill="#C67C4E"/>
</svg>
