<svg width="25" height="35" viewBox="0 0 25 35" fill="none" xmlns="http://www.w3.org/2000/svg">
<mask id="mask0_421_1391" style="mask-type:luminance" maskUnits="userSpaceOnUse" x="3" y="1" width="19" height="18">
<path fill-rule="evenodd" clip-rule="evenodd" d="M3.50009 1H21.997V18.348H3.50009V1Z" fill="white"/>
</mask>
<g mask="url(#mask0_421_1391)">
<path fill-rule="evenodd" clip-rule="evenodd" d="M12.7471 18.348C8.0711 18.348 3.8451 18.018 3.5001 14.035C3.4971 12.387 4.0001 11.549 4.4441 10.811C4.8931 10.063 5.3161 9.358 5.3161 7.695C5.3161 4.462 8.3021 1 12.7471 1C17.1921 1 20.1781 4.462 20.1781 7.695C20.1781 9.358 20.6011 10.063 21.0501 10.811C21.4941 11.549 21.9971 12.387 21.9971 13.971C21.6481 18.018 17.4231 18.348 12.7471 18.348" fill="#C67C4E"/>
</g>
<path fill-rule="evenodd" clip-rule="evenodd" d="M12.6983 22.5H12.6963C11.5753 22.499 10.5143 22.005 9.7093 21.108C9.4323 20.801 9.4573 20.326 9.7653 20.05C10.0733 19.772 10.5473 19.797 10.8243 20.106C11.3423 20.683 12.0073 21 12.6973 21H12.6983C13.3913 21 14.0593 20.683 14.5783 20.105C14.8563 19.798 15.3303 19.773 15.6373 20.05C15.9453 20.327 15.9703 20.802 15.6933 21.109C14.8853 22.006 13.8223 22.5 12.6983 22.5" fill="#C67C4E"/>
<rect x="7.5" y="30" width="10" height="5" rx="2.5" fill="#C67C4E"/>
</svg>
